<svg id="Component_13_1" data-name="Component 13 – 1" xmlns="http://www.w3.org/2000/svg" width="82" height="73" viewBox="0 0 82 73">
  <ellipse id="Ellipse_1" data-name="Ellipse 1" cx="41" cy="36.5" rx="41" ry="36.5" fill="rgba(2,2,2,0.94)"/>
  <path id="Icon_awesome-phone-alt" data-name="Icon awesome-phone-alt" d="M47.235,35.505,36.6,30.795a2.232,2.232,0,0,0-2.659.677l-4.71,5.947A35.809,35.809,0,0,1,12.4,20.03l5.755-4.868a2.4,2.4,0,0,0,.655-2.748L14.254,1.424A2.276,2.276,0,0,0,11.643.06L1.766,2.415A2.34,2.34,0,0,0,0,4.71C0,29.882,19.743,50.245,44.064,50.245a2.3,2.3,0,0,0,2.222-1.825l2.279-10.206a2.4,2.4,0,0,0-1.33-2.709Z" transform="translate(16.689 11.256)" fill="#d62b2b"/>
</svg>
