<svg xmlns="http://www.w3.org/2000/svg" width="9.537" height="9.535" viewBox="0 0 9.537 9.535">
  <path id="Icon_awesome-instagram" data-name="Icon awesome-instagram" d="M4.764,4.56A2.445,2.445,0,1,0,7.209,7.005,2.441,2.441,0,0,0,4.764,4.56Zm0,4.034A1.589,1.589,0,1,1,6.353,7.005,1.592,1.592,0,0,1,4.764,8.594ZM7.879,4.46a.57.57,0,1,1-.57-.57A.569.569,0,0,1,7.879,4.46ZM9.5,5.039a2.822,2.822,0,0,0-.77-2,2.84,2.84,0,0,0-2-.77c-.787-.045-3.147-.045-3.934,0a2.836,2.836,0,0,0-2,.768,2.831,2.831,0,0,0-.77,2c-.045.787-.045,3.147,0,3.934a2.822,2.822,0,0,0,.77,2,2.844,2.844,0,0,0,2,.77c.787.045,3.147.045,3.934,0a2.822,2.822,0,0,0,2-.77,2.84,2.84,0,0,0,.77-2c.045-.787.045-3.145,0-3.932ZM8.481,9.816a1.609,1.609,0,0,1-.906.906,10.508,10.508,0,0,1-2.811.191,10.59,10.59,0,0,1-2.811-.191,1.609,1.609,0,0,1-.906-.906A10.508,10.508,0,0,1,.856,7.005a10.59,10.59,0,0,1,.191-2.811,1.609,1.609,0,0,1,.906-.906A10.508,10.508,0,0,1,4.764,3.1a10.59,10.59,0,0,1,2.811.191,1.609,1.609,0,0,1,.906.906,10.508,10.508,0,0,1,.191,2.811A10.5,10.5,0,0,1,8.481,9.816Z" transform="translate(0.005 -2.238)"/>
</svg>
