<svg xmlns="http://www.w3.org/2000/svg" width="11.201" height="8.786" viewBox="0 0 11.201 8.786">
  <path id="Icon_awesome-twitter" data-name="Icon awesome-twitter" d="M10.05,5.571c.007.1.007.192.007.288A6.53,6.53,0,0,1,8.808,9.582a6.276,6.276,0,0,1-5.283,2.585,6.656,6.656,0,0,1-3.525-1,4.916,4.916,0,0,0,.554.027,4.7,4.7,0,0,0,2.85-.947A2.291,2.291,0,0,1,1.258,8.714a3,3,0,0,0,.434.034,2.509,2.509,0,0,0,.6-.075A2.238,2.238,0,0,1,.455,6.5V6.47a2.374,2.374,0,0,0,1.038.281A2.2,2.2,0,0,1,.469,4.9,2.143,2.143,0,0,1,.782,3.786a6.6,6.6,0,0,0,4.734,2.32A2.421,2.421,0,0,1,5.459,5.6a2.256,2.256,0,0,1,2.3-2.217,2.329,2.329,0,0,1,1.677.7,4.618,4.618,0,0,0,1.457-.535A2.227,2.227,0,0,1,9.879,4.767,4.731,4.731,0,0,0,11.2,4.424,4.846,4.846,0,0,1,10.05,5.571Z" transform="translate(0 -3.381)"/>
</svg>
