<svg xmlns="http://www.w3.org/2000/svg" width="12.192" height="8.573" viewBox="0 0 12.192 8.573">
  <path id="Icon_awesome-youtube" data-name="Icon awesome-youtube" d="M12.987,5.841a1.532,1.532,0,0,0-1.078-1.085A36.2,36.2,0,0,0,7.146,4.5a36.2,36.2,0,0,0-4.763.256A1.532,1.532,0,0,0,1.3,5.841,16.071,16.071,0,0,0,1.05,8.795,16.071,16.071,0,0,0,1.3,11.749a1.509,1.509,0,0,0,1.078,1.068,36.2,36.2,0,0,0,4.763.256,36.2,36.2,0,0,0,4.763-.256,1.509,1.509,0,0,0,1.078-1.068,16.071,16.071,0,0,0,.255-2.954,16.071,16.071,0,0,0-.255-2.954ZM5.9,10.608V6.982L9.086,8.795,5.9,10.608Z" transform="translate(-1.05 -4.5)"/>
</svg>
